<svg width="13" height="16" viewBox="0 0 13 16" fill="none" xmlns="http://www.w3.org/2000/svg">
<g clip-path="url(#clip0_3544_8931)">
<path d="M11.5254 3.25424H10.5763V0.677966C10.5763 0.498158 10.5048 0.325715 10.3777 0.198572C10.2506 0.0714284 10.0781 0 9.89831 0L2.30508 0C1.69396 0.000717706 1.10807 0.243805 0.675936 0.675936C0.243805 1.10807 0.000717706 1.69396 0 2.30508L0 13.1525C0.000717996 13.9075 0.300948 14.6314 0.834794 15.1652C1.36864 15.6991 2.09249 15.9993 2.84746 16H11.5254C11.7052 16 11.8777 15.9286 12.0048 15.8014C12.132 15.6743 12.2034 15.5018 12.2034 15.322V3.9322C12.2034 3.7524 12.132 3.57995 12.0048 3.45281C11.8777 3.32567 11.7052 3.25424 11.5254 3.25424V3.25424ZM1.35593 2.30508C1.35593 2.05335 1.45593 1.81193 1.63393 1.63393C1.81193 1.45593 2.05335 1.35593 2.30508 1.35593H9.22034V3.25424H2.30508C2.05335 3.25424 1.81193 3.15424 1.63393 2.97624C1.45593 2.79824 1.35593 2.55682 1.35593 2.30508ZM8.81356 12.1139H3.38983C3.21002 12.1139 3.03758 12.0425 2.91044 11.9153C2.78329 11.7882 2.71186 11.6157 2.71186 11.4359C2.71186 11.2561 2.78329 11.0837 2.91044 10.9565C3.03758 10.8294 3.21002 10.758 3.38983 10.758H8.81356C8.99337 10.758 9.16581 10.8294 9.29295 10.9565C9.4201 11.0837 9.49153 11.2561 9.49153 11.4359C9.49153 11.6157 9.4201 11.7882 9.29295 11.9153C9.16581 12.0425 8.99337 12.1139 8.81356 12.1139ZM8.81356 8.49627H3.38983C3.21002 8.49627 3.03758 8.42484 2.91044 8.2977C2.78329 8.17056 2.71186 7.99811 2.71186 7.81831C2.71186 7.6385 2.78329 7.46605 2.91044 7.33891C3.03758 7.21177 3.21002 7.14034 3.38983 7.14034H8.81356C8.99337 7.14034 9.16581 7.21177 9.29295 7.33891C9.4201 7.46605 9.49153 7.6385 9.49153 7.81831C9.49153 7.99811 9.4201 8.17056 9.29295 8.2977C9.16581 8.42484 8.99337 8.49627 8.81356 8.49627V8.49627Z" fill="white"/>
</g>
<defs>
<clipPath id="clip0_3544_8931">
<rect width="12.2034" height="16" fill="white"/>
</clipPath>
</defs>
</svg>
