<svg width="16" height="16" viewBox="0 0 16 16" fill="none" xmlns="http://www.w3.org/2000/svg">
<path d="M8.01337 1.33301C11.8 1.33301 14.6667 4.43766 14.6667 7.98966C14.6667 12.1092 11.3067 14.6663 8.00004 14.6663C6.90671 14.6663 5.69337 14.3726 4.72004 13.7984C4.38004 13.5914 4.09337 13.4378 3.72671 13.558L2.38004 13.9586C2.04004 14.0654 1.73337 13.7984 1.83337 13.4378L2.28004 11.9423C2.35337 11.7353 2.34004 11.5149 2.23337 11.3414C1.66004 10.2864 1.33337 9.13137 1.33337 8.00969C1.33337 4.49775 4.14004 1.33301 8.01337 1.33301ZM11.06 7.16175C10.5867 7.16175 10.2067 7.54232 10.2067 8.01637C10.2067 8.48373 10.5867 8.87098 11.06 8.87098C11.5334 8.87098 11.9134 8.48373 11.9134 8.01637C11.9134 7.54232 11.5334 7.16175 11.06 7.16175ZM7.98671 7.16175C7.52004 7.15507 7.13337 7.54232 7.13337 8.00969C7.13337 8.48373 7.51337 8.8643 7.98671 8.87098C8.46004 8.87098 8.84004 8.48373 8.84004 8.01637C8.84004 7.54232 8.46004 7.16175 7.98671 7.16175ZM4.91337 7.16175C4.44004 7.16175 4.06004 7.54232 4.06004 8.01637C4.06004 8.48373 4.44671 8.87098 4.91337 8.87098C5.38671 8.8643 5.76671 8.48373 5.76671 8.01637C5.76671 7.54232 5.38671 7.16175 4.91337 7.16175Z" fill="white"/>
</svg>
