<svg width="12" height="9" viewBox="0 0 12 9" fill="none" xmlns="http://www.w3.org/2000/svg">
<path d="M4.50017 8.09968C4.34109 8.09954 4.18858 8.03624 4.07617 7.92368L0.17617 4.02168C0.0701862 3.90794 0.0124876 3.7575 0.0152302 3.60206C0.0179728 3.44662 0.0809423 3.29832 0.190873 3.18838C0.300803 3.07845 0.449111 3.01548 0.604552 3.01274C0.759993 3.01 0.91043 3.0677 1.02417 3.17368L4.50017 6.64968L10.9762 0.175682C11.0899 0.0696979 11.2403 0.0119993 11.3958 0.0147419C11.5512 0.0174845 11.6995 0.0804541 11.8095 0.190384C11.9194 0.300315 11.9824 0.448623 11.9851 0.604064C11.9879 0.759505 11.9302 0.909942 11.8242 1.02368L4.92417 7.92368C4.81176 8.03624 4.65925 8.09954 4.50017 8.09968V8.09968Z" fill="white"/>
</svg>
