<svg width="16" height="16" viewBox="0 0 16 16" fill="none" xmlns="http://www.w3.org/2000/svg">
<path d="M7.03533 2.08233C7.34867 2.02966 7.67067 2.00033 8 2.00033C11.314 2.00033 14 4.68633 14 8.00033C14 9.16166 13.6667 10.2423 13.094 11.159C13.2447 10.5743 13.3333 9.96499 13.3333 9.33366C13.3333 5.64232 10.5893 2.58766 7.03533 2.08233ZM15.3333 8.00033C15.3333 8.63166 15.2447 9.24099 15.094 9.82566C15.6667 8.90899 16 7.82833 16 6.66699C16 3.35299 13.314 0.666992 10 0.666992C9.67067 0.666992 9.34867 0.696326 9.03533 0.748992C12.5893 1.25433 15.3333 4.30899 15.3333 8.00033ZM12 9.33366C12 12.6477 9.314 15.3337 6 15.3337C2.686 15.3337 0 12.6477 0 9.33366C0 6.01966 2.686 3.33366 6 3.33366C9.314 3.33366 12 6.01966 12 9.33366ZM8.27733 10.491C8.27733 9.29966 7.03733 8.96766 6.08667 8.52099C5.51067 8.22166 5.582 7.50432 6.40867 7.45633C6.86933 7.42833 7.33933 7.56433 7.766 7.71432L7.96733 6.79966C7.46333 6.64633 7.014 6.57633 6.61067 6.56499V6.00033H6.056V6.59299C4.97533 6.74166 4.39733 7.41966 4.39733 8.17632C4.39733 9.53099 5.97933 9.73766 6.496 9.97832C7.20333 10.2943 7.07133 10.9503 6.43333 11.095C5.88 11.2203 5.17133 11.0017 4.64133 10.795L4.38933 11.7083C4.88533 11.965 5.48067 12.1023 6.056 12.1117V12.667H6.61067V12.0823C7.53133 11.953 8.27933 11.445 8.27733 10.491Z" fill="white"/>
</svg>
