<svg width="16" height="16" viewBox="0 0 16 16" fill="none" xmlns="http://www.w3.org/2000/svg">
<path d="M7.99992 1.33301C11.6799 1.33301 14.6666 4.31967 14.6666 7.99967C14.6666 11.6863 11.6799 14.6663 7.99992 14.6663C4.31325 14.6663 1.33325 11.6863 1.33325 7.99967C1.33325 4.31967 4.31325 1.33301 7.99992 1.33301ZM10.5666 5.80634C10.6399 5.57301 10.4266 5.35301 10.1933 5.42634L6.77992 6.49301C6.63992 6.53967 6.52659 6.64634 6.48659 6.78634L5.41992 10.2063C5.34659 10.433 5.56659 10.653 5.79325 10.5797L9.19325 9.51301C9.33325 9.47301 9.44658 9.35967 9.48658 9.21967L10.5666 5.80634Z" fill="white"/>
</svg>
