<svg width="16" height="15" viewBox="0 0 16 15" fill="none" xmlns="http://www.w3.org/2000/svg">
<path d="M1.84433 7.58043H1.68507C1.37111 7.58043 1.06997 7.45584 0.847779 7.23401L0.494513 7.58785L0.847779 7.23401C0.625677 7.01227 0.500607 6.71148 0.5 6.39765V3.26091C0.500607 2.94707 0.625677 2.64629 0.847779 2.42454C1.06997 2.20272 1.37111 2.07812 1.68507 2.07812H1.84433V7.58043Z" stroke="#8E8E93"/>
<path d="M9.60723 9.49496V9.99496L15.8661 6.56523C15.9852 6.89614 16.0228 7.25088 15.9758 7.59942C15.9287 7.94796 15.7983 8.28001 15.5957 8.56747C15.3931 8.85492 15.1241 9.0893 14.8117 9.25075C14.4992 9.41221 14.1525 9.49597 13.8008 9.49496H10.1072H9.60723ZM5.16827 1.07346L5.16827 1.07346L5.16995 1.07227C5.69543 0.698746 6.32446 0.498676 6.96917 0.500008H6.9702L11.9789 0.500008L11.9797 0.500007C12.3288 0.499472 12.6694 0.607154 12.9548 0.808228C13.2402 1.0093 13.4562 1.29388 13.5731 1.6228L13.5733 1.62321L15.3951 6.73315L15.3956 6.73461C15.4876 6.98991 15.5166 7.2636 15.4803 7.53251C15.444 7.80141 15.3434 8.0576 15.187 8.27938C15.0307 8.50116 14.8232 8.68199 14.5821 8.80655C14.3411 8.93112 14.0735 8.99574 13.8022 8.99496H13.8008H9.60723H9.10723V9.49496L9.10723 11.5357L9.10723 11.537C9.10813 11.8717 9.04306 12.2033 8.91573 12.5129C8.78841 12.8224 8.60132 13.1039 8.36517 13.3411C8.12902 13.5783 7.84844 13.7666 7.53946 13.8953C7.23086 14.0239 6.89997 14.0905 6.56567 14.0912C6.39006 14.0906 6.22181 14.0205 6.09762 13.8964C5.97335 13.7721 5.9033 13.6037 5.90275 13.428L5.90275 10.7151C5.90275 10.7151 5.90275 10.715 5.90275 10.715C5.90278 10.4969 5.83018 10.2851 5.69642 10.1129L5.69621 10.1126L3.9851 7.91259L4.07962 1.84057L5.16827 1.07346Z" stroke="#8E8E93"/>
</svg>
