<svg width="16" height="15" viewBox="0 0 16 15" fill="none" xmlns="http://www.w3.org/2000/svg">
<g clip-path="url(#clip0)">
<path d="M2.34437 6.51074H1.68511C1.4629 6.51074 1.24288 6.55468 1.03772 6.64005C0.832563 6.72542 0.646315 6.85052 0.489697 7.00815C0.33308 7.16579 0.209187 7.35284 0.12515 7.55855C0.0411133 7.76426 -0.0014074 7.98455 3.55295e-05 8.20676V11.3307C0.000760263 11.7771 0.178614 12.205 0.494549 12.5205C0.810483 12.8359 1.23867 13.0131 1.68511 13.0131H2.34437V6.51074Z" fill="#0A84FF"/>
<path d="M3.58344 13.0128L4.88007 13.9292C5.49136 14.361 6.22162 14.5923 6.97 14.5912H11.9787C12.4318 14.5915 12.8739 14.4511 13.2438 14.1895C13.6138 13.9278 13.8934 13.5578 14.044 13.1305L15.8659 8.01505C15.985 7.68414 16.0227 7.3294 15.9756 6.98086C15.9285 6.63232 15.7981 6.30026 15.5955 6.01281C15.3929 5.72536 15.1239 5.49098 14.8115 5.32952C14.499 5.16807 14.1523 5.0843 13.8006 5.08531H9.60703V3.04462C9.60631 2.23783 9.28568 1.46426 8.71545 0.893515C8.14522 0.322772 7.37193 0.00144813 6.56515 0C6.25703 0.000722433 5.96174 0.123441 5.74387 0.341313C5.526 0.559185 5.40328 0.854475 5.40256 1.16259V3.87895C5.40239 3.98508 5.36677 4.0881 5.30134 4.17165L3.47949 6.51052L3.58344 13.0128Z" fill="#0A84FF"/>
</g>
<defs>
<clipPath id="clip0">
<rect width="16" height="14.5912" fill="white"/>
</clipPath>
</defs>
</svg>
