<svg width="16" height="15" viewBox="0 0 16 15" fill="none" xmlns="http://www.w3.org/2000/svg">
<g clip-path="url(#clip0)">
<path d="M2.34433 8.08043H1.68507C1.23864 8.08043 0.810447 7.90327 0.494513 7.58785C0.178579 7.27243 0.000724734 6.84453 0 6.39809L0 3.26046C0.000724734 2.81403 0.178579 2.38613 0.494513 2.0707C0.810447 1.75528 1.23864 1.57812 1.68507 1.57813H2.34433V8.08043Z" fill="#FF453A"/>
<path d="M3.58364 1.5784L4.88027 0.664737C5.49066 0.230859 6.22132 -0.00153739 6.9702 7.65428e-06H11.9789C12.4314 -0.000685272 12.8729 0.138884 13.2428 0.399504C13.6127 0.660124 13.8927 1.02898 14.0442 1.4553L15.8661 6.56523C15.9852 6.89614 16.0228 7.25088 15.9758 7.59942C15.9287 7.94796 15.7983 8.28001 15.5957 8.56747C15.3931 8.85492 15.1241 9.0893 14.8117 9.25075C14.4992 9.41221 14.1525 9.49597 13.8008 9.49496H9.60723V11.5357C9.60831 11.9361 9.53046 12.3328 9.37814 12.7031C9.22582 13.0734 9.00202 13.4101 8.71952 13.6938C8.43702 13.9776 8.10136 14.2029 7.73173 14.3569C7.36211 14.5109 6.96576 14.5905 6.56534 14.5912C6.25723 14.5905 5.96193 14.4678 5.74406 14.2499C5.52619 14.032 5.40347 13.7367 5.40275 13.4286V10.715C5.40278 10.608 5.36716 10.5041 5.30154 10.4196L3.48242 8.0807L3.58364 1.5784Z" fill="#FF453A"/>
</g>
<defs>
<clipPath id="clip0">
<rect width="16" height="14.5912" fill="white"/>
</clipPath>
</defs>
</svg>
