<svg width="16" height="15" viewBox="0 0 16 15" fill="none" xmlns="http://www.w3.org/2000/svg">
<g clip-path="url(#clip0)">
<path d="M1.6851 7.01074H1.68511H1.84437V12.5131H1.68511C1.37114 12.5131 1.07 12.3885 0.847815 12.1666C0.625712 11.9449 0.500642 11.6441 0.500036 11.3303V8.20676H0.500046L0.500025 8.20351C0.49901 8.04724 0.528914 7.89231 0.588015 7.74764C0.647116 7.60297 0.734247 7.47142 0.844393 7.36056C0.954538 7.2497 1.08552 7.16172 1.22981 7.10168C1.37409 7.04164 1.52882 7.01074 1.6851 7.01074Z" stroke="#8E8E93"/>
<mask id="path-2-inside-1" fill="white">
<path d="M3.58344 13.0128L4.88007 13.9292C5.49136 14.361 6.22162 14.5923 6.97 14.5912H11.9787C12.4318 14.5915 12.8739 14.4511 13.2438 14.1895C13.6138 13.9278 13.8934 13.5578 14.044 13.1305L15.8659 8.01505C15.985 7.68414 16.0227 7.3294 15.9756 6.98086C15.9285 6.63232 15.7981 6.30026 15.5955 6.01281C15.3929 5.72536 15.1239 5.49098 14.8115 5.32952C14.499 5.16807 14.1523 5.0843 13.8006 5.08531H9.60703V3.04462C9.60631 2.23783 9.28568 1.46426 8.71545 0.893515C8.14522 0.322772 7.37193 0.00144813 6.56515 0C6.25703 0.000722433 5.96174 0.123441 5.74387 0.341313C5.526 0.559185 5.40328 0.854475 5.40256 1.16259V3.87895C5.40239 3.98508 5.36677 4.0881 5.30134 4.17165L3.47949 6.51052L3.58344 13.0128Z"/>
</mask>
<path d="M3.58344 13.0128L2.58357 13.0288L2.59168 13.5364L3.00629 13.8295L3.58344 13.0128ZM4.88007 13.9292L4.30292 14.7459L4.30316 14.746L4.88007 13.9292ZM6.97 14.5912V13.5912L6.96857 13.5912L6.97 14.5912ZM11.9787 14.5912L11.9794 13.5912H11.9787V14.5912ZM14.044 13.1305L13.102 12.7949L13.1009 12.798L14.044 13.1305ZM15.8659 8.01505L14.925 7.67629L14.9238 7.67954L15.8659 8.01505ZM13.8006 5.08531V6.08532L13.8034 6.08531L13.8006 5.08531ZM9.60703 5.08531H8.60703V6.08531H9.60703V5.08531ZM9.60703 3.04462H10.607L10.607 3.04373L9.60703 3.04462ZM6.56515 0L6.56694 -1.00001L6.5628 -0.999997L6.56515 0ZM5.40256 1.16259L4.40256 1.16025V1.16259H5.40256ZM5.40256 3.87895L6.40256 3.88051V3.87895H5.40256ZM5.30134 4.17165L4.51398 3.55515L4.51244 3.55714L5.30134 4.17165ZM3.47949 6.51052L2.69059 5.896L2.47399 6.17407L2.47962 6.5265L3.47949 6.51052ZM3.00629 13.8295L4.30292 14.7459L5.45723 13.1126L4.1606 12.1962L3.00629 13.8295ZM4.30316 14.746C5.08361 15.2973 6.01595 15.5926 6.97144 15.5912L6.96857 13.5912C6.42728 13.592 5.89911 13.4247 5.45699 13.1124L4.30316 14.746ZM6.97 15.5912H11.9787V13.5912H6.97V15.5912ZM11.9781 15.5912C12.6383 15.5916 13.2823 15.3871 13.8213 15.0059L12.6664 13.3731C12.4655 13.5151 12.2254 13.5914 11.9794 13.5912L11.9781 15.5912ZM13.8213 15.0059C14.3603 14.6247 14.7676 14.0856 14.9871 13.463L13.1009 12.798C13.0191 13.03 12.8673 13.231 12.6664 13.3731L13.8213 15.0059ZM14.9861 13.466L16.8079 8.35055L14.9238 7.67954L13.102 12.7949L14.9861 13.466ZM16.8068 8.3538C16.9803 7.87169 17.0352 7.35484 16.9666 6.84704L14.9846 7.11468C15.0101 7.30395 14.9897 7.4966 14.925 7.67629L16.8068 8.3538ZM16.9666 6.84704C16.898 6.33924 16.7081 5.85544 16.4128 5.43664L14.7782 6.58898C14.8882 6.74508 14.959 6.92541 14.9846 7.11468L16.9666 6.84704ZM16.4128 5.43664C16.1176 5.01783 15.7258 4.67635 15.2705 4.44112L14.3524 6.21793C14.5221 6.3056 14.6681 6.43288 14.7782 6.58898L16.4128 5.43664ZM15.2705 4.44112C14.8153 4.20589 14.3101 4.08385 13.7977 4.08532L13.8034 6.08531C13.9944 6.08476 14.1827 6.13025 14.3524 6.21793L15.2705 4.44112ZM13.8006 4.08531H9.60703V6.08531H13.8006V4.08531ZM10.607 5.08531V3.04462H8.60703V5.08531H10.607ZM10.607 3.04373C10.6061 1.97219 10.1802 0.944759 9.42288 0.186726L8.00803 1.6003C8.39114 1.98375 8.60655 2.50348 8.60703 3.04552L10.607 3.04373ZM9.42288 0.186726C8.66553 -0.571307 7.63848 -0.998075 6.56694 -0.999998L6.56335 0.999998C7.10539 1.00097 7.62492 1.21685 8.00803 1.6003L9.42288 0.186726ZM6.5628 -0.999997C5.99028 -0.998655 5.4416 -0.770627 5.03676 -0.365793L6.45098 1.04842C6.48189 1.01751 6.52378 1.0001 6.56749 0.999997L6.5628 -0.999997ZM5.03676 -0.365793C4.63193 0.0390407 4.4039 0.587728 4.40256 1.16025L6.40255 1.16494C6.40266 1.12122 6.42007 1.07933 6.45098 1.04842L5.03676 -0.365793ZM4.40256 1.16259V3.87895H6.40256V1.16259H4.40256ZM4.40256 3.8774C4.40274 3.76056 4.44196 3.64714 4.51399 3.55515L6.0887 4.78815C6.29157 4.52906 6.40204 4.20959 6.40255 3.88051L4.40256 3.8774ZM4.51244 3.55714L2.69059 5.896L4.2684 7.12503L6.09025 4.78617L4.51244 3.55714ZM2.47962 6.5265L2.58357 13.0288L4.58331 12.9968L4.47936 6.49453L2.47962 6.5265Z" fill="#8E8E93" mask="url(#path-2-inside-1)"/>
</g>
<defs>
<clipPath id="clip0">
<rect width="16" height="14.5912" fill="white"/>
</clipPath>
</defs>
</svg>
