<svg width="24" height="13" viewBox="0 0 24 13" fill="none" xmlns="http://www.w3.org/2000/svg">
<g clip-path="url(#clip0)">
<path d="M7.736 12.668C3.468 12.668 0 9.828 0 6.336C0 2.844 3.468 0 7.736 0C8.05426 0 8.35948 0.126428 8.58453 0.351472C8.80957 0.576515 8.936 0.88174 8.936 1.2C8.936 1.51826 8.80957 1.82348 8.58453 2.04853C8.35948 2.27357 8.05426 2.4 7.736 2.4C4.8 2.4 2.4 4.164 2.4 6.336C2.4 8.508 4.8 10.268 7.736 10.268C10.672 10.268 13.068 8.504 13.068 6.336C13.068 6.01774 13.1944 5.71252 13.4195 5.48747C13.6445 5.26243 13.9497 5.136 14.268 5.136C14.5863 5.136 14.8915 5.26243 15.1165 5.48747C15.3416 5.71252 15.468 6.01774 15.468 6.336C15.468 9.828 12 12.668 7.736 12.668Z" fill="white"/>
<path d="M16.264 12.668C15.9457 12.668 15.6405 12.5416 15.4155 12.3165C15.1904 12.0915 15.064 11.7863 15.064 11.468C15.064 11.1497 15.1904 10.8445 15.4155 10.6195C15.6405 10.3944 15.9457 10.268 16.264 10.268C19.2 10.268 21.6 8.504 21.6 6.336C21.6 4.168 19.2 2.4 16.264 2.4C13.328 2.4 10.932 4.164 10.932 6.336C10.932 6.65426 10.8056 6.95948 10.5805 7.18453C10.3555 7.40957 10.0502 7.536 9.73198 7.536C9.41372 7.536 9.1085 7.40957 8.88345 7.18453C8.65841 6.95948 8.53198 6.65426 8.53198 6.336C8.53198 2.84 12 0 16.264 0C20.528 0 24 2.84 24 6.336C24 9.832 20.532 12.668 16.264 12.668Z" fill="white"/>
</g>
<defs>
<clipPath id="clip0">
<rect width="24" height="12.668" fill="white"/>
</clipPath>
</defs>
</svg>
