<svg width="19" height="25" viewBox="0 0 19 25" fill="none" xmlns="http://www.w3.org/2000/svg">
<g clip-path="url(#clip0)">
<path d="M15.5294 8.19562H15.1261V4.76705C15.1261 3.59029 14.6586 2.46173 13.8265 1.62964C12.9944 0.797544 11.8658 0.330078 10.6891 0.330078L7.46218 0.330078C6.28543 0.330078 5.15686 0.797544 4.32477 1.62964C3.49268 2.46173 3.02521 3.59029 3.02521 4.76705C3.02521 5.08799 3.1527 5.39578 3.37964 5.62271C3.60657 5.84965 3.91436 5.97714 4.23529 5.97714C4.55623 5.97714 4.86402 5.84965 5.09095 5.62271C5.31789 5.39578 5.44538 5.08799 5.44538 4.76705C5.44538 4.23216 5.65786 3.71918 6.03609 3.34096C6.41431 2.96273 6.92729 2.75025 7.46218 2.75025H10.6891C11.224 2.75025 11.7369 2.96273 12.1152 3.34096C12.4934 3.71918 12.7059 4.23216 12.7059 4.76705V8.19562H2.62185C1.92682 8.19669 1.26056 8.47326 0.7691 8.96472C0.277639 9.45619 0.00106682 10.1224 0 10.8175L0 20.0948C0.00106794 21.2177 0.447628 22.2944 1.24167 23.0884C2.03571 23.8825 3.11235 24.329 4.23529 24.3301H13.916C15.0389 24.329 16.1156 23.8825 16.9096 23.0884C17.7036 22.2944 18.1502 21.2177 18.1513 20.0948V10.8175C18.1502 10.1224 17.8736 9.45619 17.3822 8.96472C16.8907 8.47326 16.2244 8.19669 15.5294 8.19562ZM10.084 16.2427V18.4813C10.084 18.7488 9.97779 19.0053 9.78868 19.1944C9.59957 19.3835 9.34308 19.4897 9.07563 19.4897C8.80819 19.4897 8.55169 19.3835 8.36258 19.1944C8.17347 19.0053 8.06723 18.7488 8.06723 18.4813V16.2427C7.79978 16.2159 7.55391 16.084 7.38371 15.876C7.29944 15.773 7.23628 15.6544 7.19783 15.527C7.15939 15.3996 7.14642 15.2659 7.15966 15.1334C7.17291 15.001 7.2121 14.8725 7.27501 14.7552C7.33793 14.6379 7.42332 14.5342 7.52632 14.4499C7.73435 14.2797 8.00146 14.1991 8.26891 14.2259H9.88235C10.1498 14.1991 10.4169 14.2797 10.6249 14.4499C10.833 14.6201 10.9649 14.866 10.9916 15.1334C11.0183 15.4009 10.9377 15.668 10.7675 15.876C10.5973 16.084 10.3515 16.2159 10.084 16.2427Z" fill="#ffffff"/>
</g>
<defs>
<clipPath id="clip0">
<rect width="18.1513" height="24" fill="white" transform="translate(0 0.330078)"/>
</clipPath>
</defs>
</svg>