<svg width="24" height="6" viewBox="0 0 24 6" fill="none" xmlns="http://www.w3.org/2000/svg">
<g clip-path="url(#clip0)">
<path d="M21.3333 5.33333C22.8061 5.33333 24 4.13943 24 2.66667C24 1.19391 22.8061 0 21.3333 0C19.8605 0 18.6666 1.19391 18.6666 2.66667C18.6666 4.13943 19.8605 5.33333 21.3333 5.33333Z" fill="#8E8E93"/>
<path d="M12 5.33333C13.4728 5.33333 14.6667 4.13943 14.6667 2.66667C14.6667 1.19391 13.4728 0 12 0C10.5273 0 9.33337 1.19391 9.33337 2.66667C9.33337 4.13943 10.5273 5.33333 12 5.33333Z" fill="#8E8E93"/>
<path d="M2.66667 5.33333C4.13943 5.33333 5.33333 4.13943 5.33333 2.66667C5.33333 1.19391 4.13943 0 2.66667 0C1.19391 0 0 1.19391 0 2.66667C0 4.13943 1.19391 5.33333 2.66667 5.33333Z" fill="#8E8E93"/>
</g>
<defs>
<clipPath id="clip0">
<rect width="24" height="5.33333" fill="white"/>
</clipPath>
</defs>
</svg>
