<svg width="16" height="12" viewBox="0 0 16 12" fill="none" xmlns="http://www.w3.org/2000/svg">
<path d="M5.99958 11.3992C5.78747 11.399 5.58413 11.3146 5.43424 11.1645L0.234243 5.96185C0.0929305 5.8102 0.0159991 5.60962 0.0196559 5.40236C0.0233127 5.19511 0.107272 4.99736 0.253846 4.85079C0.40042 4.70422 0.598164 4.62026 0.805419 4.6166C1.01267 4.61294 1.21326 4.68987 1.36491 4.83119L5.99958 9.46585L14.6342 0.833852C14.7859 0.69254 14.9865 0.615608 15.1937 0.619265C15.401 0.622922 15.5987 0.706881 15.7453 0.853455C15.8919 1.00003 15.9758 1.19777 15.9795 1.40503C15.9832 1.61228 15.9062 1.81287 15.7649 1.96452L6.56491 11.1645C6.41502 11.3146 6.21168 11.399 5.99958 11.3992Z" fill="#8E8E93"/>
</svg>
