<svg width="16" height="16" viewBox="0 0 16 16" fill="none" xmlns="http://www.w3.org/2000/svg">
<path d="M15.2 7.2H8.8V0.8C8.8 0.587827 8.71571 0.384344 8.56569 0.234315C8.41566 0.0842855 8.21217 0 8 0C7.78783 0 7.58434 0.0842855 7.43431 0.234315C7.28429 0.384344 7.2 0.587827 7.2 0.8V7.2H0.8C0.587827 7.2 0.384344 7.28429 0.234315 7.43431C0.0842855 7.58434 0 7.78783 0 8C0 8.21217 0.0842855 8.41566 0.234315 8.56569C0.384344 8.71571 0.587827 8.8 0.8 8.8H7.2V15.2C7.2 15.4122 7.28429 15.6157 7.43431 15.7657C7.58434 15.9157 7.78783 16 8 16C8.21217 16 8.41566 15.9157 8.56569 15.7657C8.71571 15.6157 8.8 15.4122 8.8 15.2V8.8H15.2C15.4122 8.8 15.6157 8.71571 15.7657 8.56569C15.9157 8.41566 16 8.21217 16 8C16 7.78783 15.9157 7.58434 15.7657 7.43431C15.6157 7.28429 15.4122 7.2 15.2 7.2Z" fill="#8E8E93"/>
</svg>
