<svg width="100" height="100" viewBox="0 0 100 100" fill="none" xmlns="http://www.w3.org/2000/svg">
<path d="M0 50C0 22.3858 22.3858 0 50 0C77.6142 0 100 22.3858 100 50C100 77.6142 77.6142 100 50 100C22.3858 100 0 77.6142 0 50Z" fill="#C7C7CC"/>
<path fill-rule="evenodd" clip-rule="evenodd" d="M0 50C0 22.3858 22.3858 0 50 0C77.6142 0 100 22.3858 100 50C100 77.6142 77.6142 100 50 100C22.3858 100 0 77.6142 0 50ZM68.3253 47.418H70.5134C71.251 47.418 71.9813 47.5626 72.6622 47.8434C73.3432 48.1242 73.9614 48.5357 74.4812 49.0543C75.001 49.5729 75.4123 50.1882 75.6912 50.8649C75.9701 51.5416 76.1112 52.2663 76.1065 52.9973V63.274C76.104 64.7426 75.5137 66.1503 74.4651 67.1879C73.4165 68.2255 71.9952 68.8083 70.5134 68.8083H68.3253V47.418ZM59.9088 71.8223L64.2125 68.8077L64.5575 47.4173L58.5105 39.7233C58.2934 39.4484 58.1751 39.1095 58.1746 38.7604V29.8245C58.1722 28.8109 57.7648 27.8395 57.0417 27.1228C56.3185 26.4061 55.3384 26.0024 54.3158 26C51.6379 26.0048 49.0712 27.0618 47.1786 28.9394C45.2859 30.8169 44.2217 33.3617 44.2193 36.0158V42.7289H30.3003C29.133 42.7256 27.982 43.0012 26.9449 43.5323C25.9079 44.0634 25.0152 44.8344 24.3426 45.7801C23.67 46.7257 23.2373 47.818 23.0811 48.9646C22.9249 50.1112 23.0498 51.2781 23.4452 52.3667L29.4922 69.1946C29.9923 70.6004 30.9203 71.8177 32.1482 72.6785C33.3761 73.5392 34.8433 74.001 36.3473 74H52.972C55.456 74.0035 57.8798 73.2426 59.9088 71.8223Z" fill="#8E8E93"/>
</svg>
