<svg width="20" height="20" viewBox="0 0 20 20" fill="none" xmlns="http://www.w3.org/2000/svg">
<g clip-path="url(#clip0)">
<path d="M19.7084 18.305L14.3152 12.9016C15.5657 11.2915 16.1555 9.2654 15.9646 7.23571C15.7736 5.20603 14.8163 3.32541 13.2875 1.97677C11.7587 0.628125 9.77337 -0.0871499 7.73572 -0.0234239C5.69808 0.0403021 3.76132 0.878238 2.31978 2.31978C0.878238 3.76132 0.0403021 5.69808 -0.0234239 7.73572C-0.0871499 9.77337 0.628125 11.7587 1.97677 13.2875C3.32541 14.8163 5.20603 15.7736 7.23571 15.9646C9.2654 16.1555 11.2915 15.5657 12.9016 14.3152L18.305 19.7084C18.5002 19.8321 18.7317 19.8857 18.9613 19.8603C19.191 19.8349 19.4052 19.732 19.5686 19.5686C19.732 19.4052 19.8349 19.191 19.8603 18.9613C19.8857 18.7317 19.8321 18.5002 19.7084 18.305ZM1.99994 7.99994C1.99994 6.81325 2.35183 5.65321 3.01112 4.66651C3.67041 3.67982 4.60748 2.91078 5.70384 2.45666C6.80019 2.00253 8.00659 1.88371 9.17048 2.11522C10.3344 2.34674 11.4035 2.91818 12.2426 3.7573C13.0817 4.59641 13.6531 5.66551 13.8846 6.82939C14.1162 7.99328 13.9973 9.19968 13.5432 10.296C13.0891 11.3924 12.3201 12.3295 11.3334 12.9888C10.3467 13.648 9.18662 13.9999 7.99994 13.9999C6.40919 13.9981 4.88411 13.3654 3.75928 12.2406C2.63445 11.1158 2.00173 9.59068 1.99994 7.99994Z" fill="#C7C7CC"/>
</g>
<defs>
<clipPath id="clip0">
<rect width="20" height="20" fill="white"/>
</clipPath>
</defs>
</svg>
