<svg width="16" height="16" viewBox="0 0 16 16" fill="none" xmlns="http://www.w3.org/2000/svg">
<g clip-path="url(#clip0)">
<path d="M15.7669 14.6444L11.4523 10.3217C12.4527 9.03363 12.9245 7.41271 12.7718 5.78896C12.6191 4.16521 11.8532 2.66072 10.6302 1.58181C9.40711 0.502891 7.81884 -0.0693293 6.18873 -0.0183485C4.55861 0.0326323 3.0092 0.702981 1.85597 1.85621C0.702737 3.00944 0.0323882 4.55885 -0.0185926 6.18897C-0.0695735 7.81909 0.502647 9.40736 1.58156 10.6304C2.66048 11.8534 4.16497 12.6193 5.78872 12.772C7.41246 12.9248 9.03338 12.4529 10.3215 11.4525L14.6442 15.7671C14.8003 15.8661 14.9855 15.9089 15.1692 15.8886C15.353 15.8683 15.5243 15.786 15.655 15.6553C15.7857 15.5245 15.868 15.3532 15.8884 15.1695C15.9087 14.9857 15.8659 14.8005 15.7669 14.6444ZM1.6001 6.40034C1.6001 5.45099 1.88161 4.52296 2.40904 3.7336C2.93647 2.94425 3.68613 2.32902 4.56321 1.96572C5.4403 1.60242 6.40542 1.50736 7.33653 1.69257C8.26764 1.87778 9.12292 2.33493 9.79421 3.00623C10.4655 3.67752 10.9227 4.5328 11.1079 5.46391C11.2931 6.39502 11.198 7.36013 10.8347 8.23722C10.4714 9.11431 9.85619 9.86396 9.06683 10.3914C8.27748 10.9188 7.34945 11.2003 6.4001 11.2003C5.1275 11.1989 3.90743 10.6927 3.00757 9.79287C2.1077 8.893 1.60153 7.67294 1.6001 6.40034V6.40034Z" fill="#C7C7CC"/>
</g>
<defs>
<clipPath id="clip0">
<rect width="16" height="16" fill="white"/>
</clipPath>
</defs>
</svg>
