<svg width="16" height="15" viewBox="0 0 16 15" fill="none" xmlns="http://www.w3.org/2000/svg">
<g clip-path="url(#clip0)">
<path d="M15.859 3.31448C15.7847 3.20833 15.6862 3.12146 15.5715 3.06108C15.4569 3.0007 15.3295 2.96857 15.2 2.96736H4.11932L4.02712 2.4955C3.91864 1.92674 3.64372 1.403 3.23721 0.99069C2.83069 0.578381 2.31089 0.296074 1.74373 0.179565L0.962708 0.0168536C0.772237 0.0121132 0.586143 0.0743742 0.436872 0.192781C0.287602 0.311188 0.184624 0.47823 0.145894 0.664783C0.107163 0.851335 0.135137 1.04556 0.224937 1.2136C0.314737 1.38165 0.460667 1.51284 0.637284 1.58431L1.4183 1.74702C1.67633 1.79948 1.91289 1.92756 2.09787 2.11495C2.28284 2.30233 2.40784 2.54054 2.45695 2.79923L2.67118 3.90296C2.67118 3.90296 2.67118 3.92736 2.67118 3.93821L3.46305 8.03041C3.59314 8.69915 3.95147 9.30194 4.47678 9.73575C5.0021 10.1696 5.66177 10.4074 6.34305 10.4087H11.4956C12.0899 10.405 12.6692 10.2218 13.1575 9.88299C13.6458 9.54423 14.0203 9.06578 14.2319 8.51041L15.9458 4.06838C15.9936 3.94513 16.0108 3.81206 15.9957 3.68069C15.9805 3.54933 15.9336 3.42363 15.859 3.31448Z" fill="white"/>
<path d="M11.4196 11.9141C11.1553 11.9125 10.8964 11.9894 10.6759 12.1352C10.4554 12.2809 10.2831 12.4889 10.1809 12.7327C10.0788 12.9765 10.0513 13.2452 10.1021 13.5046C10.1529 13.764 10.2796 14.0025 10.4661 14.1898C10.6527 14.3771 10.8907 14.5048 11.1499 14.5566C11.4091 14.6085 11.6779 14.5821 11.9221 14.481C12.1663 14.3798 12.375 14.2084 12.5216 13.9885C12.6683 13.7685 12.7463 13.51 12.7457 13.2456C12.7457 12.8934 12.6062 12.5555 12.3577 12.306C12.1091 12.0564 11.7718 11.9155 11.4196 11.9141Z" fill="white"/>
<path d="M6.18031 14.5796C6.91719 14.5796 7.51454 13.9822 7.51454 13.2454C7.51454 12.5085 6.91719 11.9111 6.18031 11.9111C5.44343 11.9111 4.84607 12.5085 4.84607 13.2454C4.84607 13.9822 5.44343 14.5796 6.18031 14.5796Z" fill="white"/>
</g>
<defs>
<clipPath id="clip0">
<rect width="16" height="14.579" fill="white"/>
</clipPath>
</defs>
</svg>
