<svg width="24" height="16" viewBox="0 0 24 16" fill="none" xmlns="http://www.w3.org/2000/svg">
<path d="M9.2 15.9996H1.2C0.88174 15.9996 0.576515 15.8732 0.351472 15.6481C0.126428 15.4231 0 15.1179 0 14.7996C0 14.4813 0.126428 14.1761 0.351472 13.9511C0.576515 13.726 0.88174 13.5996 1.2 13.5996H9.2C9.51826 13.5996 9.82348 13.726 10.0485 13.9511C10.2736 14.1761 10.4 14.4813 10.4 14.7996C10.4 15.1179 10.2736 15.4231 10.0485 15.6481C9.82348 15.8732 9.51826 15.9996 9.2 15.9996Z" fill="white"/>
<path d="M22.8 2.4H1.2C0.88174 2.4 0.576515 2.27357 0.351472 2.04853C0.126428 1.82348 0 1.51826 0 1.2C0 0.88174 0.126428 0.576515 0.351472 0.351472C0.576515 0.126428 0.88174 0 1.2 0L22.8 0C23.1183 0 23.4235 0.126428 23.6485 0.351472C23.8736 0.576515 24 0.88174 24 1.2C24 1.51826 23.8736 1.82348 23.6485 2.04853C23.4235 2.27357 23.1183 2.4 22.8 2.4Z" fill="white"/>
<path d="M16 9.1998H1.2C0.88174 9.1998 0.576515 9.07338 0.351472 8.84833C0.126428 8.62329 0 8.31806 0 7.9998C0 7.68154 0.126428 7.37632 0.351472 7.15128C0.576515 6.92623 0.88174 6.7998 1.2 6.7998H16C16.3183 6.7998 16.6235 6.92623 16.8485 7.15128C17.0736 7.37632 17.2 7.68154 17.2 7.9998C17.2 8.31806 17.0736 8.62329 16.8485 8.84833C16.6235 9.07338 16.3183 9.1998 16 9.1998Z" fill="white"/>
</svg>
