<svg width="24" height="24" viewBox="0 0 24 24" fill="none" xmlns="http://www.w3.org/2000/svg">
<g clip-path="url(#clip0)">
<path d="M12.0001 1.15002e-05C8.99239 -0.00415083 6.09285 1.1217 3.87605 3.15447C1.65924 5.18724 0.286937 7.97859 0.0310614 10.9754C-0.224814 13.9722 0.654411 16.9558 2.49451 19.335C4.33462 21.7141 7.00132 23.3152 9.96621 23.821V20.1031H9.74655C8.86534 20.1412 7.99959 19.8627 7.30587 19.318C6.91364 18.9397 6.62391 18.468 6.46383 17.9471C6.3418 17.6176 6.28485 17.4875 6.16282 17.398C5.93328 17.2683 5.66587 17.2223 5.40621 17.2678C5.27266 17.2804 5.13795 17.2665 5.00976 17.227C4.88158 17.1875 4.76243 17.1231 4.65912 17.0375C4.45048 16.8648 4.31902 16.6162 4.29367 16.3465C4.26831 16.0767 4.35114 15.808 4.52393 15.5994C4.69672 15.3907 4.94531 15.2593 5.21502 15.2339C5.97685 15.1274 6.75063 15.3151 7.37909 15.7587C7.85275 16.1339 8.19816 16.6471 8.36756 17.2271C8.42499 17.44 8.52922 17.6373 8.67265 17.8048C9.07819 18.0354 9.55008 18.1215 10.011 18.0488C10.0341 17.7395 10.1069 17.436 10.2265 17.1498C10.4812 16.5484 10.9052 16.034 11.4469 15.6692C8.3635 15.3275 6.91536 13.8305 6.91536 11.7966C6.94904 10.8855 7.31345 10.0179 7.94045 9.35594C7.73706 8.64815 7.46451 7.19188 8.02994 6.62645C8.48435 6.63491 8.93195 6.73846 9.34391 6.93042C9.75587 7.12239 10.1231 7.39852 10.4218 7.74103C11.1242 7.48509 11.8631 7.34362 12.6103 7.32205C13.3603 7.32278 14.105 7.44646 14.815 7.68815C15.1138 7.34564 15.481 7.06951 15.8929 6.87754C16.3049 6.68557 16.7525 6.58203 17.2069 6.57357C17.752 7.11866 17.4998 8.60747 17.272 9.30306C17.9214 9.97232 18.2909 10.8642 18.3052 11.7966C18.3052 13.8305 16.8693 15.3478 13.8306 15.6651C14.6686 16.0963 15.2625 17.3248 15.2625 18.2359V23.5485C18.0511 22.7611 20.4605 20.9913 22.046 18.566C23.6315 16.1406 24.2858 13.2235 23.8882 10.3533C23.4905 7.48309 22.0678 4.85371 19.8827 2.95071C17.6976 1.04771 14.8977 -0.000371412 12.0001 1.15002e-05Z" fill="white"/>
</g>
<defs>
<clipPath id="clip0">
<rect width="24" height="23.821" fill="white"/>
</clipPath>
</defs>
</svg>
