<svg width="20" height="24" viewBox="0 0 20 24" fill="none" xmlns="http://www.w3.org/2000/svg">
<g clip-path="url(#clip0_312:2726)">
<path d="M19.9322 20.6401C19.4029 18.405 18.1347 16.4139 16.3331 14.989C14.5314 13.5642 12.3017 12.7891 10.0047 12.7891C7.70775 12.7891 5.47799 13.5642 3.67634 14.989C1.87469 16.4139 0.606577 18.405 0.0772591 20.6401C-0.0167489 21.038 -0.0190925 21.4519 0.0704056 21.8508C0.159904 22.2497 0.338901 22.623 0.593869 22.9425C0.855487 23.2732 1.18875 23.5402 1.56854 23.7234C1.94833 23.9066 2.36474 24.0012 2.78641 24.0001H17.2149C17.637 24.0013 18.0538 23.9064 18.4337 23.7224C18.8136 23.5384 19.1466 23.2703 19.4074 22.9384C19.6635 22.6202 19.8438 22.2479 19.9347 21.8497C20.0256 21.4516 20.0247 21.0379 19.9322 20.6401Z" fill="white"/>
<path d="M9.99862 10.8285C11.0695 10.8285 12.1162 10.5109 13.0066 9.91601C13.897 9.32109 14.5909 8.4755 15.0007 7.48618C15.4105 6.49686 15.5177 5.40823 15.3088 4.35797C15.0999 3.30772 14.5843 2.34299 13.8271 1.5858C13.0699 0.828601 12.1051 0.312945 11.0549 0.104035C10.0046 -0.104874 8.916 0.00234589 7.92668 0.412137C6.93736 0.821928 6.09177 1.51588 5.49684 2.40625C4.90192 3.29662 4.58438 4.3434 4.58438 5.41424C4.58546 6.84985 5.15623 8.22636 6.17136 9.24149C7.1865 10.2566 8.563 10.8274 9.99862 10.8285Z" fill="white"/>
</g>
<defs>
<clipPath id="clip0_312:2726">
<rect width="19.9973" height="24" fill="white"/>
</clipPath>
</defs>
</svg>
