<svg width="24" height="20" viewBox="0 0 24 20" fill="none" xmlns="http://www.w3.org/2000/svg">
<g clip-path="url(#clip0_312:2235)">
<path d="M23.943 16.8848C23.7367 15.999 23.3551 15.1636 22.8208 14.4277C22.2864 13.6917 21.6102 13.0702 20.8319 12.5997C20.0536 12.1293 19.189 11.8194 18.289 11.6883C17.3891 11.5572 16.472 11.6077 15.5918 11.8366C16.6591 13.0703 17.4114 14.5442 17.7844 16.1322C17.9171 16.6994 17.934 17.2875 17.8341 17.8614C17.7341 18.4352 17.5194 18.983 17.2027 19.4719H21.8603C22.1842 19.4723 22.504 19.3994 22.7957 19.2585C23.0874 19.1175 23.3434 18.9124 23.5444 18.6583C23.7408 18.4122 23.8788 18.1247 23.9478 17.8174C24.0169 17.5102 24.0152 17.1913 23.943 16.8848Z" fill="white"/>
<path d="M7.93219 10.3721C6.10936 10.3651 4.33812 10.977 2.90826 12.1076C1.47839 13.2382 0.474561 14.8206 0.0610041 16.5959C-0.0191457 16.9362 -0.0208792 17.2903 0.0559346 17.6313C0.132748 17.9724 0.286099 18.2916 0.504394 18.5647C0.727719 18.8482 1.0126 19.0772 1.33749 19.2343C1.66237 19.3915 2.01875 19.4727 2.37965 19.4718H13.4847C13.8456 19.4727 14.202 19.3915 14.5269 19.2343C14.8518 19.0772 15.1367 18.8482 15.36 18.5647C15.5783 18.2916 15.7316 17.9724 15.8084 17.6313C15.8853 17.2903 15.8835 16.9362 15.8034 16.5959C15.3898 14.8206 14.386 13.2382 12.9561 12.1076C11.5263 10.977 9.75502 10.3651 7.93219 10.3721Z" fill="white"/>
<path d="M17.2881 10.0221C17.9318 10.0221 18.5609 9.83129 19.0961 9.47371C19.6313 9.11613 20.0484 8.60789 20.2947 8.01325C20.541 7.41862 20.6054 6.7643 20.4798 6.13304C20.3543 5.50178 20.0443 4.92193 19.5892 4.46682C19.1341 4.0117 18.5543 3.70177 17.923 3.5762C17.2917 3.45064 16.6374 3.51508 16.0428 3.76139C15.4482 4.00769 14.9399 4.4248 14.5823 4.95995C14.2248 5.49511 14.0339 6.12428 14.0339 6.76791C14.0339 7.63099 14.3768 8.45872 14.987 9.069C15.5973 9.67929 16.4251 10.0221 17.2881 10.0221Z" fill="white"/>
<path d="M7.9322 8.66391C8.73674 8.66391 9.5232 8.42534 10.1921 7.97837C10.8611 7.53139 11.3825 6.89609 11.6904 6.1528C11.9982 5.4095 12.0788 4.59161 11.9218 3.80253C11.7649 3.01346 11.3775 2.28864 10.8086 1.71975C10.2397 1.15086 9.51486 0.763441 8.72579 0.606484C7.93671 0.449527 7.11882 0.530083 6.37552 0.837965C5.63223 1.14585 4.99693 1.66723 4.54995 2.33617C4.10298 3.00512 3.86441 3.79158 3.86441 4.59612C3.86441 5.67497 4.29298 6.70962 5.05584 7.47248C5.8187 8.23534 6.85336 8.66391 7.9322 8.66391Z" fill="white"/>
</g>
<defs>
<clipPath id="clip0_312:2235">
<rect width="24" height="18.9437" fill="white" transform="translate(0 0.52832)"/>
</clipPath>
</defs>
</svg>
