<svg width="24" height="20" viewBox="0 0 24 20" fill="none" xmlns="http://www.w3.org/2000/svg">
<g clip-path="url(#clip0_312:2656)">
<path d="M23.9349 16.9972C23.4963 15.1327 22.4407 13.471 20.9392 12.2817C19.4377 11.0924 17.5785 10.4453 15.663 10.4453C13.7476 10.4453 11.8884 11.0924 10.3869 12.2817C8.88542 13.471 7.82977 15.1327 7.39119 16.9972C7.30868 17.3489 7.30719 17.7147 7.38682 18.0671C7.46646 18.4194 7.62513 18.7491 7.85085 19.0311C8.08071 19.3246 8.37475 19.5615 8.71039 19.7236C9.04603 19.8858 9.41436 19.969 9.78712 19.9667H21.5593C21.9314 19.9683 22.2989 19.8849 22.6338 19.7227C22.9687 19.5606 23.2621 19.324 23.4915 19.0311C23.7152 18.7481 23.8715 18.4178 23.9483 18.0654C24.0251 17.7129 24.0206 17.3476 23.9349 16.9972Z" fill="white"/>
<path d="M15.6651 8.57655C18.024 8.57655 19.9363 6.66428 19.9363 4.30537C19.9363 1.94646 18.024 0.0341797 15.6651 0.0341797C13.3062 0.0341797 11.3939 1.94646 11.3939 4.30537C11.3939 6.66428 13.3062 8.57655 15.6651 8.57655Z" fill="white"/>
<path d="M8.94915 4.63473C8.94915 4.36502 8.84201 4.10636 8.65129 3.91564C8.46058 3.72493 8.20191 3.61778 7.9322 3.61778H5.49153V1.17711C5.49153 0.907394 5.38438 0.648729 5.19367 0.458014C5.00295 0.267299 4.74429 0.160156 4.47458 0.160156C4.20486 0.160156 3.9462 0.267299 3.75548 0.458014C3.56477 0.648729 3.45763 0.907394 3.45763 1.17711V3.61778H1.01695C0.747237 3.61778 0.488572 3.72493 0.297857 3.91564C0.107143 4.10636 0 4.36502 0 4.63473C0 4.90444 0.107143 5.16311 0.297857 5.35382C0.488572 5.54454 0.747237 5.65168 1.01695 5.65168H3.45763V8.09236C3.45763 8.36207 3.56477 8.62074 3.75548 8.81145C3.9462 9.00217 4.20486 9.10931 4.47458 9.10931C4.74429 9.10931 5.00295 9.00217 5.19367 8.81145C5.38438 8.62074 5.49153 8.36207 5.49153 8.09236V5.65168H7.9322C8.06575 5.65168 8.19799 5.62538 8.32137 5.57427C8.44475 5.52316 8.55686 5.44826 8.65129 5.35382C8.74573 5.25939 8.82063 5.14728 8.87174 5.0239C8.92285 4.90052 8.94915 4.76828 8.94915 4.63473Z" fill="white"/>
</g>
<defs>
<clipPath id="clip0_312:2656">
<rect width="24" height="19.9322" fill="white" transform="translate(0 0.0341797)"/>
</clipPath>
</defs>
</svg>
