<svg width="19" height="24" viewBox="0 0 19 24" fill="none" xmlns="http://www.w3.org/2000/svg">
<path d="M15.5294 7.86555H15.1261V4.43698C15.1261 3.26022 14.6586 2.13165 13.8265 1.29956C12.9944 0.467466 11.8658 0 10.6891 0L7.46218 0C6.28543 0 5.15686 0.467466 4.32477 1.29956C3.49268 2.13165 3.02521 3.26022 3.02521 4.43698C3.02521 4.75791 3.1527 5.0657 3.37964 5.29263C3.60657 5.51957 3.91436 5.64706 4.23529 5.64706C4.55623 5.64706 4.86402 5.51957 5.09095 5.29263C5.31789 5.0657 5.44538 4.75791 5.44538 4.43698C5.44538 3.90208 5.65786 3.3891 6.03609 3.01088C6.41431 2.63265 6.92729 2.42017 7.46218 2.42017H10.6891C11.224 2.42017 11.7369 2.63265 12.1152 3.01088C12.4934 3.3891 12.7059 3.90208 12.7059 4.43698V7.86555H2.62185C1.92682 7.86661 1.26056 8.14319 0.7691 8.63465C0.277639 9.12611 0.00106682 9.79237 0 10.4874L0 19.7647C0.00106794 20.8876 0.447628 21.9643 1.24167 22.7583C2.03571 23.5524 3.11235 23.9989 4.23529 24H13.916C15.0389 23.9989 16.1156 23.5524 16.9096 22.7583C17.7036 21.9643 18.1502 20.8876 18.1513 19.7647V10.4874C18.1502 9.79237 17.8736 9.12611 17.3822 8.63465C16.8907 8.14319 16.2244 7.86661 15.5294 7.86555ZM10.084 15.9126V18.1513C10.084 18.4187 9.97779 18.6752 9.78868 18.8643C9.59957 19.0534 9.34308 19.1597 9.07563 19.1597C8.80818 19.1597 8.55169 19.0534 8.36258 18.8643C8.17347 18.6752 8.06723 18.4187 8.06723 18.1513V15.9126C7.79978 15.8859 7.55392 15.754 7.38371 15.5459C7.29944 15.4429 7.23628 15.3243 7.19783 15.1969C7.15939 15.0695 7.14642 14.9358 7.15966 14.8034C7.17291 14.6709 7.2121 14.5424 7.27501 14.4251C7.33793 14.3079 7.42332 14.2041 7.52632 14.1198C7.73435 13.9496 8.00146 13.8691 8.26891 13.8958H9.88235C10.1498 13.8691 10.4169 13.9496 10.6249 14.1198C10.833 14.29 10.9649 14.5359 10.9916 14.8034C11.0183 15.0708 10.9377 15.3379 10.7675 15.5459C10.5973 15.754 10.3515 15.8859 10.084 15.9126Z" fill="black"/>
</svg>
