<svg width="28" height="28" viewBox="0 0 28 28" fill="none" xmlns="http://www.w3.org/2000/svg">
<rect width="28" height="28" rx="14" fill="#0A84FF"/>
<g clip-path="url(#clip0)">
<path d="M21.7653 13.8662L16.1333 8.23424C15.9817 8.09293 15.7811 8.016 15.5738 8.01966C15.3666 8.02331 15.1688 8.10727 15.0223 8.25385C14.8757 8.40042 14.7917 8.59816 14.7881 8.80542C14.7844 9.01267 14.8614 9.21326 15.0027 9.36491L19.2693 13.6316H6.8C6.58783 13.6316 6.38434 13.7159 6.23431 13.8659C6.08429 14.0159 6 14.2194 6 14.4316C6 14.6437 6.08429 14.8472 6.23431 14.9973C6.38434 15.1473 6.58783 15.2316 6.8 15.2316H19.2693L15.0027 19.4982C14.8529 19.6482 14.7687 19.8516 14.7687 20.0636C14.7687 20.2756 14.8529 20.4789 15.0027 20.6289C15.1527 20.7787 15.356 20.8629 15.568 20.8629C15.78 20.8629 15.9833 20.7787 16.1333 20.6289L21.7653 14.9996C21.8399 14.9253 21.8991 14.8369 21.9395 14.7397C21.9798 14.6425 22.0006 14.5382 22.0006 14.4329C22.0006 14.3276 21.9798 14.2234 21.9395 14.1261C21.8991 14.0289 21.8399 13.9406 21.7653 13.8662Z" fill="white"/>
</g>
<defs>
<clipPath id="clip0">
<rect width="16" height="12.8693" fill="white" transform="translate(6 8)"/>
</clipPath>
</defs>
</svg>
