<svg width="118" height="23" viewBox="0 0 118 23" fill="none" xmlns="http://www.w3.org/2000/svg">
<path d="M32.5759 15.556L38.7199 7.564H42.5119L36.3679 15.556H32.5759ZM32.5759 17.356V15.556L35.0719 14.62H42.3679V17.356H32.5759ZM33.0079 8.5V5.764H42.5119V7.564L39.9919 8.5H33.0079Z" fill="white"/>
<path d="M49.2087 17.596C48.1527 17.596 47.2007 17.332 46.3527 16.804C45.5047 16.276 44.8407 15.556 44.3607 14.644C43.8807 13.732 43.6407 12.708 43.6407 11.572C43.6407 10.42 43.8807 9.388 44.3607 8.476C44.8407 7.564 45.5047 6.844 46.3527 6.316C47.2007 5.788 48.1527 5.524 49.2087 5.524C50.0407 5.524 50.7847 5.692 51.4407 6.028C52.0967 6.364 52.6167 6.836 53.0007 7.444C53.4007 8.036 53.6167 8.708 53.6487 9.46V13.636C53.6167 14.404 53.4007 15.084 53.0007 15.676C52.6167 16.268 52.0967 16.74 51.4407 17.092C50.7847 17.428 50.0407 17.596 49.2087 17.596ZM49.7847 14.692C50.6647 14.692 51.3767 14.404 51.9207 13.828C52.4647 13.236 52.7367 12.476 52.7367 11.548C52.7367 10.94 52.6087 10.404 52.3527 9.94C52.1127 9.46 51.7687 9.092 51.3207 8.836C50.8887 8.564 50.3767 8.428 49.7847 8.428C49.2087 8.428 48.6967 8.564 48.2487 8.836C47.8167 9.092 47.4727 9.46 47.2167 9.94C46.9767 10.404 46.8567 10.94 46.8567 11.548C46.8567 12.172 46.9767 12.724 47.2167 13.204C47.4727 13.668 47.8167 14.036 48.2487 14.308C48.6967 14.564 49.2087 14.692 49.7847 14.692ZM52.5687 17.356V14.236L53.0727 11.404L52.5687 8.62V5.764H55.6887V17.356H52.5687Z" fill="white"/>
<path d="M58.4701 17.356V5.764H61.6141V17.356H58.4701ZM66.0301 17.356V10.516C66.0301 9.844 65.8141 9.324 65.3821 8.956C64.9661 8.572 64.4461 8.38 63.8221 8.38C63.4061 8.38 63.0301 8.468 62.6941 8.644C62.3581 8.804 62.0941 9.044 61.9021 9.364C61.7101 9.684 61.6141 10.068 61.6141 10.516L60.3901 9.916C60.3901 9.02 60.5821 8.244 60.9661 7.588C61.3661 6.932 61.9021 6.428 62.5741 6.076C63.2461 5.708 64.0061 5.524 64.8541 5.524C65.6541 5.524 66.3821 5.708 67.0381 6.076C67.6941 6.428 68.2141 6.932 68.5981 7.588C68.9821 8.228 69.1741 9.004 69.1741 9.916V17.356H66.0301ZM73.5901 17.356V10.516C73.5901 9.844 73.3741 9.324 72.9421 8.956C72.5261 8.572 72.0061 8.38 71.3821 8.38C70.9821 8.38 70.6061 8.468 70.2541 8.644C69.9181 8.804 69.6541 9.044 69.4621 9.364C69.2701 9.684 69.1741 10.068 69.1741 10.516L67.3741 10.084C67.4381 9.156 67.6861 8.356 68.1181 7.684C68.5501 6.996 69.1181 6.468 69.8221 6.1C70.5261 5.716 71.3101 5.524 72.1741 5.524C73.0381 5.524 73.8141 5.708 74.5021 6.076C75.1901 6.428 75.7341 6.94 76.1341 7.612C76.5341 8.284 76.7341 9.084 76.7341 10.012V17.356H73.5901Z" fill="white"/>
<path d="M84.7306 17.596C83.5626 17.596 82.5066 17.332 81.5626 16.804C80.6346 16.26 79.8906 15.532 79.3306 14.62C78.7866 13.692 78.5146 12.66 78.5146 11.524C78.5146 10.388 78.7866 9.372 79.3306 8.476C79.8746 7.564 80.6186 6.844 81.5626 6.316C82.5066 5.772 83.5546 5.5 84.7066 5.5C85.8906 5.5 86.9466 5.772 87.8746 6.316C88.8186 6.844 89.5626 7.564 90.1066 8.476C90.6506 9.372 90.9226 10.388 90.9226 11.524C90.9226 12.66 90.6506 13.692 90.1066 14.62C89.5626 15.532 88.8186 16.26 87.8746 16.804C86.9466 17.332 85.8986 17.596 84.7306 17.596ZM84.7066 14.668C85.2986 14.668 85.8186 14.54 86.2666 14.284C86.7306 14.012 87.0826 13.644 87.3226 13.18C87.5786 12.7 87.7066 12.156 87.7066 11.548C87.7066 10.94 87.5786 10.404 87.3226 9.94C87.0666 9.476 86.7146 9.116 86.2666 8.86C85.8186 8.588 85.2986 8.452 84.7066 8.452C84.1306 8.452 83.6186 8.588 83.1706 8.86C82.7226 9.116 82.3706 9.476 82.1146 9.94C81.8586 10.404 81.7306 10.94 81.7306 11.548C81.7306 12.156 81.8586 12.7 82.1146 13.18C82.3706 13.644 82.7226 14.012 83.1706 14.284C83.6186 14.54 84.1306 14.668 84.7066 14.668Z" fill="white"/>
<path d="M100.747 17.356V10.708C100.747 10.02 100.531 9.46 100.099 9.028C99.6666 8.596 99.1066 8.38 98.4186 8.38C97.9706 8.38 97.5706 8.476 97.2186 8.668C96.8666 8.86 96.5866 9.132 96.3786 9.484C96.1866 9.836 96.0906 10.244 96.0906 10.708L94.8666 10.084C94.8666 9.172 95.0586 8.38 95.4426 7.708C95.8426 7.02 96.3866 6.484 97.0746 6.1C97.7786 5.716 98.5706 5.524 99.4506 5.524C100.299 5.524 101.059 5.74 101.731 6.172C102.403 6.588 102.931 7.14 103.315 7.828C103.699 8.5 103.891 9.228 103.891 10.012V17.356H100.747ZM92.9466 17.356V5.764H96.0906V17.356H92.9466Z" fill="white"/>
<path d="M111.271 22.492C110.039 22.492 108.951 22.268 108.007 21.82C107.063 21.388 106.311 20.772 105.751 19.972L107.743 17.98C108.191 18.508 108.687 18.908 109.231 19.18C109.791 19.468 110.463 19.612 111.247 19.612C112.223 19.612 112.991 19.364 113.551 18.868C114.127 18.372 114.415 17.684 114.415 16.804V13.9L114.943 11.356L114.439 8.812V5.764H117.559V16.756C117.559 17.908 117.287 18.908 116.743 19.756C116.215 20.62 115.479 21.292 114.535 21.772C113.591 22.252 112.503 22.492 111.271 22.492ZM111.127 17.044C110.087 17.044 109.151 16.796 108.319 16.3C107.487 15.788 106.831 15.092 106.351 14.212C105.887 13.332 105.655 12.348 105.655 11.26C105.655 10.172 105.887 9.196 106.351 8.332C106.831 7.468 107.487 6.788 108.319 6.292C109.151 5.78 110.087 5.524 111.127 5.524C111.991 5.524 112.751 5.692 113.407 6.028C114.079 6.364 114.607 6.828 114.991 7.42C115.375 7.996 115.583 8.676 115.615 9.46V13.108C115.583 13.876 115.367 14.564 114.967 15.172C114.583 15.764 114.055 16.228 113.383 16.564C112.727 16.884 111.975 17.044 111.127 17.044ZM111.751 14.188C112.327 14.188 112.823 14.068 113.239 13.828C113.671 13.572 114.007 13.228 114.247 12.796C114.487 12.348 114.607 11.844 114.607 11.284C114.607 10.708 114.487 10.204 114.247 9.772C114.007 9.34 113.671 9.004 113.239 8.764C112.823 8.508 112.327 8.38 111.751 8.38C111.175 8.38 110.671 8.508 110.239 8.764C109.807 9.004 109.471 9.348 109.231 9.796C108.991 10.228 108.871 10.724 108.871 11.284C108.871 11.828 108.991 12.324 109.231 12.772C109.471 13.204 109.807 13.548 110.239 13.804C110.671 14.06 111.175 14.188 111.751 14.188Z" fill="white"/>
<g clip-path="url(#clip0_3344_11335)">
<path d="M0 23L14.5975 0H24L9.40254 23H0ZM0.282101 0V12.6632L8.29774 0H0.282101ZM23.7885 23V10.3608L15.7963 23H23.7885Z" fill="white"/>
</g>
<defs>
<clipPath id="clip0_3344_11335">
<rect width="24" height="23" fill="white"/>
</clipPath>
</defs>
</svg>
